<svg width="24" height="24" viewBox="0 0 24 24" fill="none" xmlns="http://www.w3.org/2000/svg">
<path d="M21 4H3C1.89543 4 1 4.89543 1 6V18C1 19.1046 1.89543 20 3 20H21C22.1046 20 23 19.1046 23 18V6C23 4.89543 22.1046 4 21 4Z" stroke="black" stroke-width="2" stroke-linecap="round" stroke-linejoin="round"/>
<path d="M1 10H23" stroke="black" stroke-width="2" stroke-linecap="round" stroke-linejoin="round"/>
<path d="M15.0339 16C14.834 16 14.6559 15.9579 14.4997 15.8736C14.3435 15.787 14.2206 15.6679 14.131 15.5162C14.0437 15.3646 14 15.1925 14 15C14 14.8051 14.0437 14.633 14.131 14.4838C14.2206 14.3321 14.3435 14.2142 14.4997 14.13C14.6559 14.0433 14.834 14 15.0339 14C15.2292 14 15.3992 14.0433 15.5439 14.13C15.6887 14.2142 15.7955 14.3357 15.8645 14.4946L15.4475 14.7292C15.3992 14.6378 15.3383 14.5704 15.2648 14.5271C15.1936 14.4838 15.1155 14.4621 15.0304 14.4621C14.9385 14.4621 14.8558 14.4838 14.7823 14.5271C14.7088 14.5704 14.6502 14.6318 14.6066 14.7112C14.5652 14.7906 14.5445 14.8869 14.5445 15C14.5445 15.1131 14.5652 15.2094 14.6066 15.2888C14.6502 15.3682 14.7088 15.4296 14.7823 15.4729C14.8558 15.5162 14.9385 15.5379 15.0304 15.5379C15.1155 15.5379 15.1936 15.5174 15.2648 15.4765C15.3383 15.4332 15.3992 15.3646 15.4475 15.2708L15.8645 15.509C15.7955 15.6655 15.6887 15.787 15.5439 15.8736C15.3992 15.9579 15.2292 16 15.0339 16Z" fill="black"/>
<path d="M16.6502 15.9711L15.8714 14.0289H16.4262L17.0741 15.7004H16.7984L17.4705 14.0289H17.9874L17.2051 15.9711H16.6502Z" fill="black"/>
<path d="M18.6628 15.9711L17.884 14.0289H18.4388L19.0867 15.7004H18.811L19.4831 14.0289H20L19.2177 15.9711H18.6628Z" fill="black"/>
<path d="M3 14.25C3 14.1119 3.11193 14 3.25 14H7.75C7.88807 14 8 14.1119 8 14.25V14.25C8 14.3881 7.88807 14.5 7.75 14.5H3.25C3.11193 14.5 3 14.3881 3 14.25V14.25Z" fill="black"/>
<path d="M3 15.25C3 15.1119 3.11193 15 3.25 15H9.75C9.88807 15 10 15.1119 10 15.25V15.25C10 15.3881 9.88807 15.5 9.75 15.5H3.25C3.11193 15.5 3 15.3881 3 15.25V15.25Z" fill="black"/>
</svg>
