<svg width="48" height="48" viewBox="0 0 48 48" fill="none" xmlns="http://www.w3.org/2000/svg">
<path fill-rule="evenodd" clip-rule="evenodd" d="M0 15.7241C0 12.5247 2.59366 9.93103 5.7931 9.93103H42.2069C45.4063 9.93103 48 12.5247 48 15.7241V32.2759C48 35.4753 45.4063 38.069 42.2069 38.069H5.7931C2.59366 38.069 0 35.4753 0 32.2759V15.7241ZM42.2069 13.2414H5.7931C4.42191 13.2414 3.31034 14.3529 3.31034 15.7241V32.2759C3.31034 33.647 4.42191 34.7586 5.7931 34.7586H42.2069C43.5781 34.7586 44.6897 33.647 44.6897 32.2759V15.7241C44.6897 14.3529 43.5781 13.2414 42.2069 13.2414ZM5.7931 11.5862C3.50779 11.5862 1.65517 13.4388 1.65517 15.7241V32.2759C1.65517 34.5612 3.50779 36.4138 5.7931 36.4138H42.2069C44.4922 36.4138 46.3448 34.5612 46.3448 32.2759V15.7241C46.3448 13.4388 44.4922 11.5862 42.2069 11.5862H5.7931ZM24.2163 30.6207C27.2186 30.6207 29.1274 29.0201 29.1274 26.6919C29.1274 24.3638 27.2927 23.418 24.5314 22.8359L24.1051 22.745C22.5484 22.4176 21.8256 21.9629 21.8256 21.017C21.8256 20.0712 22.5113 19.4892 23.9939 19.4892C25.4765 19.4892 26.3846 20.0712 26.3846 21.5263V22.072H28.7938V21.5263C28.7938 18.7616 26.7738 17.3793 23.9939 17.3793C21.214 17.3793 19.4164 18.7616 19.4164 21.0898C19.4164 23.418 20.9916 24.3092 23.6789 24.8912L24.1051 24.9822C25.773 25.346 26.7182 25.7097 26.7182 26.7647C26.7182 27.7832 25.8842 28.5108 24.2163 28.5108C22.5484 28.5108 21.5291 27.7469 21.5291 26.219V25.7097H19.1199V26.219C19.1199 28.9837 21.214 30.6207 24.2163 30.6207ZM7.44828 30.366H9.9687L10.6729 27.565H15.3061L16.0103 30.366H18.5307L15.1207 17.6339H10.8583L7.44828 30.366ZM11.2474 25.346L12.8227 19.1436H13.1563L14.7316 25.346H11.2474ZM32.9905 30.366H30.5812V17.6339H35.2329L37.8089 28.7291H38.1425V17.6339H40.5517V30.366H35.9001L33.324 19.2709H32.9905V30.366Z" fill="#10B981"/>
</svg>
