<svg width="30" height="30" viewBox="0 0 30 30" fill="none" xmlns="http://www.w3.org/2000/svg">
<path d="M16.8187 9.29725C16.3427 5.2083 13.3532 2.85693 9.39499 2.85693C4.87729 2.85693 1.42847 6.15922 1.42847 11.9512C1.42847 17.7259 4.81883 21.0454 9.39499 21.0454C13.7791 21.0454 16.4262 18.0284 16.8187 14.7694L13.1611 14.7521C12.8188 16.6453 11.3825 17.7345 9.45345 17.7345C6.85639 17.7345 5.09441 15.7376 5.09441 11.9512C5.09441 8.26853 6.83134 6.16786 9.4785 6.16786C11.4576 6.16786 12.8856 7.35219 13.1611 9.29725H16.8187Z" fill="white"/>
<path d="M13.181 20.2018C13.657 24.2907 16.6466 26.6421 20.6048 26.6421C25.1225 26.6421 28.5713 23.3398 28.5713 17.5478C28.5713 11.7732 25.1809 8.4536 20.6048 8.4536C16.2207 8.4536 13.5735 11.4706 13.181 14.7297L16.8386 14.747C17.181 12.8538 18.6173 11.7645 20.5463 11.7645C23.1434 11.7645 24.9054 13.7615 24.9054 17.5478C24.9054 21.2305 23.1684 23.3312 20.5213 23.3312C18.5421 23.3312 17.1142 22.1468 16.8386 20.2018H13.181Z" fill="#10B981"/>
</svg>
