<svg width="20" height="20" viewBox="0 0 20 20" fill="none" xmlns="http://www.w3.org/2000/svg">
<g clip-path="url(#clip0_3892_80331)">
<path d="M3.9645 17.3015V16.3281C3.9645 15.9558 3.73712 15.712 3.34678 15.712C3.15161 15.712 2.93939 15.7762 2.79348 15.9879C2.67979 15.8102 2.51684 15.712 2.2724 15.712C2.10944 15.712 1.94649 15.7611 1.81764 15.9388V15.7441H1.47656V17.3015H1.81764V16.4415C1.81764 16.1656 1.96354 16.0351 2.19092 16.0351C2.4183 16.0351 2.53199 16.1807 2.53199 16.4415V17.3015H2.87307V16.4415C2.87307 16.1656 3.03602 16.0351 3.24635 16.0351C3.47373 16.0351 3.58743 16.1807 3.58743 16.4415V17.3015H3.9645ZM9.02375 15.7441H8.47046V15.2735H8.12938V15.7441H7.82052V16.0522H8.12938V16.7666C8.12938 17.1238 8.27529 17.3336 8.66563 17.3336C8.81153 17.3336 8.97449 17.2845 9.08818 17.2202L8.98964 16.9272C8.89111 16.9915 8.77742 17.0085 8.69594 17.0085C8.53298 17.0085 8.46856 16.9102 8.46856 16.7496V16.0522H9.02186V15.7441H9.02375ZM11.9191 15.7101C11.7239 15.7101 11.5932 15.8083 11.5117 15.9369V15.7422H11.1706V17.2996H11.5117V16.4226C11.5117 16.1637 11.6254 16.0162 11.8376 16.0162C11.902 16.0162 11.9835 16.0333 12.0498 16.0484L12.1484 15.7233C12.0801 15.7101 11.9835 15.7101 11.9191 15.7101ZM7.54387 15.8726C7.38092 15.7592 7.15353 15.7101 6.9091 15.7101C6.51876 15.7101 6.25916 15.9047 6.25916 16.2128C6.25916 16.4717 6.45433 16.6192 6.79541 16.6664L6.95836 16.6834C7.13648 16.7156 7.23501 16.7647 7.23501 16.846C7.23501 16.9594 7.10427 17.0406 6.87689 17.0406C6.6495 17.0406 6.46949 16.9594 6.3558 16.8781L6.19284 17.137C6.37096 17.2674 6.6154 17.3317 6.85983 17.3317C7.3146 17.3317 7.57609 17.12 7.57609 16.829C7.57609 16.553 7.36386 16.4075 7.03984 16.3583L6.87689 16.3413C6.73098 16.3243 6.61729 16.2922 6.61729 16.1958C6.61729 16.0824 6.73098 16.0181 6.91099 16.0181C7.10616 16.0181 7.30133 16.0994 7.39986 16.1485L7.54387 15.8726ZM16.6183 15.7101C16.4231 15.7101 16.2924 15.8083 16.2109 15.9369V15.7422H15.8698V17.2996H16.2109V16.4226C16.2109 16.1637 16.3246 16.0162 16.5368 16.0162C16.6013 16.0162 16.6827 16.0333 16.7491 16.0484L16.8476 15.7271C16.7813 15.7101 16.6846 15.7101 16.6183 15.7101ZM12.2602 16.5228C12.2602 16.9934 12.5861 17.3336 13.0901 17.3336C13.3175 17.3336 13.4804 17.2845 13.6434 17.1559L13.4804 16.88C13.3497 16.9783 13.2208 17.0255 13.073 17.0255C12.7964 17.0255 12.6012 16.8309 12.6012 16.5228C12.6012 16.2298 12.7964 16.0351 13.073 16.02C13.2189 16.02 13.3497 16.0692 13.4804 16.1656L13.6434 15.8896C13.4804 15.7592 13.3175 15.712 13.0901 15.712C12.5861 15.7101 12.2602 16.0522 12.2602 16.5228ZM15.4151 16.5228V15.7441H15.074V15.9388C14.9603 15.7932 14.7974 15.712 14.5851 15.712C14.1455 15.712 13.8045 16.0522 13.8045 16.5228C13.8045 16.9934 14.1455 17.3336 14.5851 17.3336C14.8125 17.3336 14.9755 17.2523 15.074 17.1068V17.3015H15.4151V16.5228ZM14.1626 16.5228C14.1626 16.2468 14.3407 16.02 14.6344 16.02C14.9111 16.02 15.1062 16.2317 15.1062 16.5228C15.1062 16.7987 14.9111 17.0255 14.6344 17.0255C14.3426 17.0085 14.1626 16.7968 14.1626 16.5228ZM10.0811 15.7101C9.62631 15.7101 9.3004 16.0351 9.3004 16.5209C9.3004 17.0085 9.62631 17.3317 10.0981 17.3317C10.3255 17.3317 10.5529 17.2674 10.7329 17.12L10.5699 16.8762C10.4392 16.9745 10.2762 17.0388 10.1152 17.0388C9.90296 17.0388 9.69263 16.9405 9.64337 16.6664H10.7973C10.7973 16.6173 10.7973 16.5851 10.7973 16.536C10.8125 16.0351 10.5188 15.7101 10.0811 15.7101ZM10.0811 16.003C10.2933 16.003 10.4392 16.1334 10.4714 16.3754H9.65853C9.69074 16.1656 9.83664 16.003 10.0811 16.003ZM18.5548 16.5228V15.1279H18.2138V15.9388C18.1001 15.7932 17.9371 15.712 17.7249 15.712C17.2853 15.712 16.9442 16.0522 16.9442 16.5228C16.9442 16.9934 17.2853 17.3336 17.7249 17.3336C17.9523 17.3336 18.1152 17.2523 18.2138 17.1068V17.3015H18.5548V16.5228ZM17.3024 16.5228C17.3024 16.2468 17.4805 16.02 17.7742 16.02C18.0508 16.02 18.246 16.2317 18.246 16.5228C18.246 16.7987 18.0508 17.0255 17.7742 17.0255C17.4805 17.0085 17.3024 16.7968 17.3024 16.5228ZM5.88398 16.5228V15.7441H5.54291V15.9388C5.42922 15.7932 5.26626 15.712 5.05404 15.712C4.61443 15.712 4.27336 16.0522 4.27336 16.5228C4.27336 16.9934 4.61443 17.3336 5.05404 17.3336C5.28142 17.3336 5.44438 17.2523 5.54291 17.1068V17.3015H5.88398V16.5228ZM4.61633 16.5228C4.61633 16.2468 4.79445 16.02 5.08815 16.02C5.3648 16.02 5.55996 16.2317 5.55996 16.5228C5.55996 16.7987 5.3648 17.0255 5.08815 17.0255C4.79445 17.0085 4.61633 16.7968 4.61633 16.5228Z" fill="black"/>
<path d="M12.5543 3.91602H7.43066V13.0978H12.5543V3.91602Z" fill="#FF5A00"/>
<path d="M7.77153 8.5072C7.77153 6.64173 8.65074 4.98606 9.99987 3.9163C9.00697 3.13761 7.75447 2.66699 6.38829 2.66699C3.15188 2.66699 0.533203 5.27902 0.533203 8.5072C0.533203 11.7354 3.15188 14.3474 6.38829 14.3474C7.75447 14.3474 9.00697 13.8768 9.99987 13.0981C8.64884 12.0435 7.77153 10.3727 7.77153 8.5072Z" fill="#EB001B"/>
<path d="M19.4667 8.5072C19.4667 11.7354 16.848 14.3474 13.6116 14.3474C12.2454 14.3474 10.9929 13.8768 10 13.0981C11.3662 12.0264 12.2283 10.3727 12.2283 8.5072C12.2283 6.64173 11.3491 4.98606 10 3.9163C10.991 3.13761 12.2435 2.66699 13.6097 2.66699C16.848 2.66699 19.4667 5.29603 19.4667 8.5072Z" fill="#F79E1B"/>
</g>
<defs>
<clipPath id="clip0_3892_80331">
<rect width="18.9333" height="14.6667" fill="white" transform="translate(0.533203 2.66699)"/>
</clipPath>
</defs>
</svg>
