<svg width="40" height="40" viewBox="0 0 40 40" fill="none" xmlns="http://www.w3.org/2000/svg">
<path d="M20.0002 39.1663C9.41441 39.1663 0.833496 30.5854 0.833496 19.9997C0.833496 9.41393 9.41441 0.833008 20.0002 0.833008C30.5859 0.833008 39.1668 9.41393 39.1668 19.9997C39.1668 30.5854 30.5859 39.1663 20.0002 39.1663ZM17.359 13.1284C17.2436 13.0515 17.1096 13.0072 16.9711 13.0004C16.8326 12.9936 16.6948 13.0245 16.5725 13.0898C16.4502 13.1551 16.3478 13.2524 16.2764 13.3712C16.2049 13.4901 16.1671 13.6261 16.1668 13.7648V26.2346C16.1671 26.3733 16.2049 26.5093 16.2764 26.6281C16.3478 26.747 16.4502 26.8442 16.5725 26.9095C16.6948 26.9748 16.8326 27.0057 16.9711 26.9989C17.1096 26.9921 17.2436 26.9479 17.359 26.8709L26.7104 20.6379C26.8156 20.5679 26.9018 20.4731 26.9615 20.3617C27.0211 20.2504 27.0523 20.126 27.0523 19.9997C27.0523 19.8734 27.0211 19.749 26.9615 19.6376C26.9018 19.5263 26.8156 19.4314 26.7104 19.3614L17.3571 13.1284H17.359Z" fill="white"/>
</svg>
